G75*
G70*
%OFA0B0*%
%FSLAX24Y24*%
%IPPOS*%
%LPD*%
%AMOC8*
5,1,8,0,0,1.08239X$1,22.5*
%
%ADD10C,0.0740*%
%ADD11R,0.0740X0.0740*%
%ADD12R,0.0236X0.0866*%
%ADD13C,0.0320*%
%ADD14C,0.0240*%
%ADD15C,0.0160*%
%ADD16C,0.0500*%
D10*
X001487Y002100D03*
X001487Y003100D03*
X001487Y004100D03*
X001487Y005600D03*
X001487Y006600D03*
X002987Y006600D03*
X002987Y005600D03*
X004487Y005600D03*
X004487Y006600D03*
D11*
X001487Y001100D03*
D12*
X003237Y002076D03*
X003737Y002076D03*
X004237Y002076D03*
X004737Y002076D03*
X004737Y004124D03*
X004237Y004124D03*
X003737Y004124D03*
X003237Y004124D03*
D13*
X001487Y001100D02*
X001487Y000600D01*
X004737Y000600D01*
X004737Y002076D01*
X003737Y002076D02*
X003737Y001100D01*
X002487Y001100D01*
X002487Y001600D01*
X001487Y002100D01*
X001487Y003100D02*
X003237Y002576D01*
X003237Y002076D01*
X003237Y004124D02*
X003737Y004124D01*
X004487Y004124D02*
X004737Y004124D01*
X004487Y006600D02*
X002987Y006600D01*
X001487Y005600D02*
X001487Y004100D01*
D14*
X001487Y005600D02*
X001987Y005850D01*
X002987Y006600D01*
D15*
X001487Y006600D02*
X000737Y006100D01*
X000737Y003600D01*
X001487Y003100D01*
X002987Y004124D02*
X003237Y004124D01*
X004237Y004124D02*
X004487Y004124D01*
D16*
X004487Y005600D01*
X002987Y005600D02*
X002987Y004124D01*
M02*
