G75*
G70*
%OFA0B0*%
%FSLAX24Y24*%
%IPPOS*%
%LPD*%
%AMOC8*
5,1,8,0,0,1.08239X$1,22.5*
%
%ADD10C,0.0080*%
D10*
X000987Y000850D02*
X001237Y000600D01*
X001737Y000600D01*
X001987Y000850D01*
X001987Y001350D01*
X001737Y001600D01*
X001987Y001850D01*
X001987Y002350D01*
X001737Y002600D01*
X001987Y002850D01*
X001987Y003350D01*
X001737Y003600D01*
X001987Y003850D01*
X001987Y004350D01*
X001737Y004600D01*
X001237Y004600D01*
X000987Y004350D01*
X000987Y003850D01*
X001237Y003600D01*
X000987Y003350D01*
X000987Y002850D01*
X001237Y002600D01*
X000987Y002350D01*
X000987Y001850D01*
X001237Y001600D01*
X000987Y001350D01*
X000987Y000850D01*
X001237Y005100D02*
X000987Y005350D01*
X000987Y005850D01*
X001237Y006100D01*
X000987Y006350D01*
X000987Y006850D01*
X001237Y007100D01*
X001737Y007100D01*
X001987Y006850D01*
X001987Y006350D01*
X001737Y006100D01*
X001987Y005850D01*
X001987Y005350D01*
X001737Y005100D01*
X001237Y005100D01*
X002487Y005350D02*
X002487Y005850D01*
X002737Y006100D01*
X002487Y006350D01*
X002487Y006850D01*
X002737Y007100D01*
X003237Y007100D01*
X003487Y006850D01*
X003487Y006350D01*
X003237Y006100D01*
X003487Y005850D01*
X003487Y005350D01*
X003237Y005100D01*
X002737Y005100D01*
X002487Y005350D01*
X003987Y005350D02*
X003987Y005850D01*
X004237Y006100D01*
X003987Y006350D01*
X003987Y006850D01*
X004237Y007100D01*
X004737Y007100D01*
X004987Y006850D01*
X004987Y006350D01*
X004737Y006100D01*
X004987Y005850D01*
X004987Y005350D01*
X004737Y005100D01*
X004237Y005100D01*
X003987Y005350D01*
M02*
